<svg width="187" height="35" viewBox="0 0 187 35" fill="none" xmlns="http://www.w3.org/2000/svg">
<rect x="1.5" y="1.5" width="184" height="32" rx="10.5" fill="#ECDFEC" stroke="#5F4084" stroke-width="3"/>
<path d="M11.2919 9.86328H19.5927V11.8164H17.1513V23.0469H21.0576C21.2285 23.0469 21.3811 22.9818 21.5153 22.8516C21.6496 22.7173 21.7513 22.5464 21.8205 22.3389C21.8938 22.1313 21.9467 21.9218 21.9792 21.7102C22.0158 21.4986 22.0341 21.2931 22.0341 21.0938V19.1406H24.2314V25H11.2919V23.0469H13.2451V11.8164H11.2919V9.86328ZM29.7413 13.9832C30.4574 13.7024 31.2163 13.562 32.0179 13.562C32.8195 13.562 33.5763 13.7024 34.2884 13.9832C35.0046 14.2639 35.6271 14.6566 36.1561 15.1611C36.6851 15.6616 37.1021 16.2801 37.4073 17.0166C37.7166 17.7531 37.8712 18.5547 37.8712 19.4214C37.8712 20.2881 37.7166 21.0897 37.4073 21.8262C37.1021 22.5627 36.6851 23.1832 36.1561 23.6877C35.6271 24.1882 35.0046 24.5789 34.2884 24.8596C33.5763 25.1404 32.8195 25.2808 32.0179 25.2808C31.2163 25.2808 30.4574 25.1404 29.7413 24.8596C29.0292 24.5789 28.4087 24.1882 27.8797 23.6877C27.3548 23.1832 26.9378 22.5627 26.6285 21.8262C26.3233 21.0897 26.1707 20.2881 26.1707 19.4214C26.1707 18.5547 26.3233 17.7531 26.6285 17.0166C26.9378 16.2801 27.3548 15.6616 27.8797 15.1611C28.4087 14.6566 29.0292 14.2639 29.7413 13.9832ZM32.0179 15.5151C31.7331 15.5151 31.4788 15.5558 31.255 15.6372C31.0312 15.7186 30.8257 15.8529 30.6385 16.04C30.4513 16.2272 30.2967 16.4693 30.1747 16.7664C30.0566 17.0634 29.9631 17.4337 29.8939 17.8772C29.8288 18.3207 29.7962 18.8354 29.7962 19.4214C29.7962 20.0073 29.8288 20.5221 29.8939 20.9656C29.9631 21.4091 30.0566 21.7794 30.1747 22.0764C30.2967 22.3735 30.4513 22.6156 30.6385 22.8027C30.8257 22.9899 31.0312 23.1242 31.255 23.2056C31.4788 23.2869 31.7331 23.3276 32.0179 23.3276C32.376 23.3276 32.6873 23.2605 32.9517 23.1262C33.2162 22.9879 33.4461 22.7681 33.6414 22.467C33.8408 22.1659 33.9893 21.7611 34.087 21.2524C34.1887 20.7438 34.2396 20.1335 34.2396 19.4214C34.2396 18.7093 34.1887 18.099 34.087 17.5903C33.9893 17.0817 33.8408 16.6768 33.6414 16.3757C33.4461 16.0746 33.2162 15.8569 32.9517 15.7227C32.6873 15.5843 32.376 15.5151 32.0179 15.5151ZM46.8845 11.5723C46.8845 11.0311 47.0737 10.5713 47.4521 10.1929C47.8346 9.81038 48.2964 9.61914 48.8376 9.61914C49.0411 9.61914 49.2405 9.64966 49.4358 9.71069C49.6881 9.788 49.9078 9.88973 50.095 10.0159C50.2862 10.142 50.4408 10.2804 50.5588 10.4309C50.6768 10.5815 50.7724 10.7564 50.8457 10.9558C50.9189 11.1511 50.9678 11.3485 50.9922 11.5479C51.0207 11.7432 51.0349 11.9609 51.0349 12.2009C51.0349 12.4491 50.9861 12.7096 50.8884 12.9822C50.7908 13.2548 50.6605 13.5132 50.4978 13.7573C50.3391 13.9974 50.1641 14.2232 49.9729 14.4348C49.7857 14.6423 49.5924 14.8254 49.393 14.9841C49.9993 15.5823 50.3025 16.3167 50.3025 17.1875C50.3025 17.8385 50.1601 18.4184 49.8752 18.927C49.5945 19.4316 49.2059 19.8405 48.7095 20.1538C48.213 20.4631 47.6454 20.697 47.0066 20.8557C46.3718 21.0144 45.6801 21.0938 44.9314 21.0938C44.3129 21.0938 43.7208 21.0246 43.1553 20.8862C42.785 20.9432 42.5001 21.0429 42.3008 21.1853C42.1014 21.3277 42.0017 21.46 42.0017 21.582C42.0017 21.7041 42.0526 21.816 42.1543 21.9177C42.256 22.0194 42.3679 22.0703 42.49 22.0703H45.9079C47.6291 22.0703 48.8722 22.3165 49.6372 22.8088C50.4062 23.3012 50.7908 24.113 50.7908 25.2441C50.7908 25.7894 50.7236 26.2838 50.5893 26.7273C50.4551 27.1749 50.272 27.5553 50.04 27.8687C49.8122 28.186 49.5294 28.4648 49.1916 28.7048C48.8539 28.949 48.4999 29.1443 48.1296 29.2908C47.7593 29.4373 47.3463 29.5553 46.8906 29.6448C46.4349 29.7343 45.9934 29.7953 45.5661 29.8279C45.1389 29.8645 44.6832 29.8828 44.199 29.8828C43.4258 29.8828 42.726 29.7974 42.0993 29.6265C41.4768 29.4596 40.9641 29.2297 40.5613 28.9368C40.1625 28.6438 39.8553 28.3061 39.6396 27.9236C39.424 27.5452 39.3161 27.1403 39.3161 26.709C39.3161 25.826 39.8227 25.1363 40.8359 24.6399C40.4412 24.4405 40.1299 24.1679 39.9021 23.822C39.6742 23.4721 39.5603 23.0509 39.5603 22.5586C39.5603 22.0093 39.719 21.5108 40.0364 21.0632C40.3537 20.6156 40.781 20.2901 41.3181 20.0867C40.842 19.7489 40.4697 19.338 40.2012 18.8538C39.9367 18.3695 39.8044 17.8141 39.8044 17.1875C39.8044 16.6667 39.896 16.1987 40.0791 15.7837C40.2663 15.3687 40.5165 15.0248 40.8298 14.7522C41.1472 14.4755 41.5256 14.2476 41.9651 14.0686C42.4086 13.8855 42.8745 13.7553 43.3628 13.678C43.8511 13.6007 44.3739 13.562 44.9314 13.562C46.2172 13.562 47.3138 13.7736 48.2212 14.1968C48.4287 13.9567 48.5894 13.7309 48.7034 13.5193C48.1947 13.4867 47.7634 13.2833 47.4094 12.9089C47.0595 12.5346 46.8845 12.089 46.8845 11.5723ZM45.0534 15.4785C44.4797 15.4785 44.0301 15.6433 43.7046 15.9729C43.3831 16.3025 43.2224 16.7786 43.2224 17.4011C43.2224 18.0278 43.3852 18.516 43.7107 18.866C44.0362 19.2118 44.4838 19.3848 45.0534 19.3848C45.619 19.3848 46.0646 19.2098 46.3901 18.8599C46.7197 18.5059 46.8845 18.0196 46.8845 17.4011C46.8845 16.7867 46.7217 16.3127 46.3962 15.979C46.0707 15.6453 45.6231 15.4785 45.0534 15.4785ZM43.1919 25C42.7239 25.3337 42.49 25.7406 42.49 26.2207C42.49 26.7049 42.6405 27.0284 42.9416 27.1912C43.2427 27.358 43.8246 27.4414 44.6872 27.4414C46.6404 27.4414 47.6169 26.9531 47.6169 25.9766C47.6169 25.7324 47.5152 25.5086 47.3117 25.3052C47.1083 25.1017 46.8845 25 46.6404 25H43.1919ZM52.2418 20.1172V18.1641H58.8336V20.1172H52.2418ZM61.7068 12.4695C61.3284 12.087 61.1392 11.6252 61.1392 11.084C61.1392 10.5428 61.3284 10.083 61.7068 9.70459C62.0893 9.3221 62.5511 9.13086 63.0923 9.13086C63.6335 9.13086 64.0933 9.3221 64.4717 9.70459C64.8542 10.083 65.0454 10.5428 65.0454 11.084C65.0454 11.6252 64.8542 12.087 64.4717 12.4695C64.0933 12.8479 63.6335 13.0371 63.0923 13.0371C62.5511 13.0371 62.0893 12.8479 61.7068 12.4695ZM60.1626 13.7695H64.8013V23.0469H66.022V25H60.1626V23.0469H61.3833V15.7227H60.1626V13.7695ZM75.4076 13.5254C75.9773 13.5254 76.4757 13.6027 76.903 13.7573C77.3302 13.9119 77.6802 14.1256 77.9528 14.3982C78.2254 14.6667 78.4451 15.0106 78.612 15.4297C78.7829 15.8447 78.9009 16.2923 78.966 16.7725C79.0351 17.2485 79.0697 17.7938 79.0697 18.4082V23.0469H80.2904V25H74.4311V23.0469H75.6518V18.1641C75.6518 17.5212 75.5928 17.0207 75.4748 16.6626C75.3608 16.3045 75.194 16.0583 74.9743 15.9241C74.7586 15.7898 74.4636 15.7227 74.0893 15.7227C73.7475 15.7227 73.3975 15.8671 73.0395 16.156C72.6814 16.4449 72.3416 16.8477 72.0202 17.3645L71.9896 23.0469H73.2104V25H67.351V23.0469H68.5717V15.7227H67.351V13.7695H71.1413L71.9958 15.4236C72.1463 15.151 72.3192 14.9068 72.5145 14.6912C72.7139 14.4714 72.9499 14.2721 73.2226 14.093C73.4992 13.9099 73.8227 13.7695 74.193 13.6719C74.5633 13.5742 74.9682 13.5254 75.4076 13.5254ZM90.3597 9.86328H92.6119L83.8777 25H81.6194L90.3597 9.86328ZM97.3527 13.2812C97.3527 13.6678 97.4422 14.0157 97.6213 14.325C97.8003 14.6301 98.0404 14.8865 98.3415 15.094C98.6426 15.3015 98.9884 15.4928 99.3791 15.6677C99.7697 15.8427 100.181 16.0095 100.612 16.1682C101.043 16.3228 101.475 16.4856 101.906 16.6565C102.337 16.8233 102.748 17.0247 103.139 17.2607C103.529 17.4927 103.875 17.7551 104.176 18.0481C104.478 18.337 104.718 18.7012 104.897 19.1406C105.076 19.576 105.165 20.0643 105.165 20.6055C105.165 21.2687 105.019 21.8872 104.726 22.4609C104.433 23.0347 104.03 23.527 103.517 23.938C103.009 24.3449 102.39 24.6643 101.662 24.8962C100.933 25.1282 100.148 25.2441 99.3058 25.2441C98.9803 25.2441 98.6365 25.2218 98.2743 25.177C97.9163 25.1363 97.5358 25.0651 97.133 24.9634C96.7342 24.8617 96.3497 24.7375 95.9794 24.5911C95.6091 24.4446 95.2531 24.2594 94.9113 24.0356C94.5736 23.8078 94.2786 23.5555 94.0263 23.2788C93.774 23.0021 93.5726 22.6766 93.422 22.3022C93.2756 21.9238 93.2023 21.521 93.2023 21.0938C93.2023 20.5526 93.3915 20.0928 93.7699 19.7144C94.1524 19.3319 94.6143 19.1406 95.1554 19.1406C95.6966 19.1406 96.1564 19.3319 96.5348 19.7144C96.9173 20.0928 97.1086 20.5526 97.1086 21.0938C97.1086 21.4437 97.0231 21.7672 96.8522 22.0642C96.6854 22.3572 96.4575 22.5911 96.1686 22.7661C96.779 23.116 97.5806 23.291 98.5734 23.291C99.4564 23.291 100.124 23.1547 100.575 22.8821C101.031 22.6095 101.259 22.1761 101.259 21.582C101.259 21.1955 101.169 20.8496 100.99 20.5444C100.811 20.2352 100.571 19.9768 100.27 19.7693C99.9691 19.5618 99.6232 19.3705 99.2326 19.1956C98.842 19.0206 98.431 18.8558 97.9997 18.7012C97.5684 18.5425 97.137 18.3797 96.7057 18.2129C96.2744 18.042 95.8634 17.8406 95.4728 17.6086C95.0822 17.3726 94.7363 17.1102 94.4352 16.8213C94.1341 16.5283 93.894 16.1641 93.715 15.7288C93.536 15.2893 93.4465 14.799 93.4465 14.2578C93.4465 13.5905 93.5787 12.972 93.8432 12.4023C94.1117 11.8286 94.4861 11.3383 94.9662 10.9314C95.4504 10.5204 96.0445 10.199 96.7485 9.96704C97.4524 9.73511 98.2235 9.61914 99.0617 9.61914C99.3872 9.61914 99.7249 9.64152 100.075 9.68628C100.429 9.72697 100.797 9.79818 101.18 9.8999C101.566 10.0016 101.936 10.1257 102.29 10.2722C102.644 10.4187 102.982 10.6059 103.304 10.8337C103.629 11.0575 103.91 11.3078 104.146 11.5845C104.382 11.8612 104.569 12.1867 104.707 12.561C104.85 12.9354 104.921 13.3382 104.921 13.7695C104.921 14.3107 104.73 14.7725 104.347 15.155C103.969 15.5334 103.509 15.7227 102.968 15.7227C102.427 15.7227 101.965 15.5334 101.582 15.155C101.204 14.7725 101.015 14.3107 101.015 13.7695C101.015 13.4074 101.106 13.0758 101.289 12.7747C101.473 12.4695 101.715 12.2314 102.016 12.0605C101.475 11.735 100.734 11.5723 99.7941 11.5723C98.9356 11.5723 98.313 11.7065 97.9264 11.9751C97.544 12.2396 97.3527 12.675 97.3527 13.2812ZM108.527 12.4695C108.148 12.087 107.959 11.6252 107.959 11.084C107.959 10.5428 108.148 10.083 108.527 9.70459C108.909 9.3221 109.371 9.13086 109.912 9.13086C110.453 9.13086 110.913 9.3221 111.292 9.70459C111.674 10.083 111.865 10.5428 111.865 11.084C111.865 11.6252 111.674 12.087 111.292 12.4695C110.913 12.8479 110.453 13.0371 109.912 13.0371C109.371 13.0371 108.909 12.8479 108.527 12.4695ZM106.982 13.7695H111.621V23.0469H112.842V25H106.982V23.0469H108.203V15.7227H106.982V13.7695ZM121.739 11.5723C121.739 11.0311 121.928 10.5713 122.307 10.1929C122.689 9.81038 123.151 9.61914 123.692 9.61914C123.896 9.61914 124.095 9.64966 124.29 9.71069C124.543 9.788 124.762 9.88973 124.95 10.0159C125.141 10.142 125.296 10.2804 125.414 10.4309C125.532 10.5815 125.627 10.7564 125.7 10.9558C125.774 11.1511 125.822 11.3485 125.847 11.5479C125.875 11.7432 125.89 11.9609 125.89 12.2009C125.89 12.4491 125.841 12.7096 125.743 12.9822C125.645 13.2548 125.515 13.5132 125.352 13.7573C125.194 13.9974 125.019 14.2232 124.828 14.4348C124.64 14.6423 124.447 14.8254 124.248 14.9841C124.854 15.5823 125.157 16.3167 125.157 17.1875C125.157 17.8385 125.015 18.4184 124.73 18.927C124.449 19.4316 124.061 19.8405 123.564 20.1538C123.068 20.4631 122.5 20.697 121.861 20.8557C121.227 21.0144 120.535 21.0938 119.786 21.0938C119.168 21.0938 118.576 21.0246 118.01 20.8862C117.64 20.9432 117.355 21.0429 117.155 21.1853C116.956 21.3277 116.856 21.46 116.856 21.582C116.856 21.7041 116.907 21.816 117.009 21.9177C117.111 22.0194 117.223 22.0703 117.345 22.0703H120.763C122.484 22.0703 123.727 22.3165 124.492 22.8088C125.261 23.3012 125.645 24.113 125.645 25.2441C125.645 25.7894 125.578 26.2838 125.444 26.7273C125.31 27.1749 125.127 27.5553 124.895 27.8687C124.667 28.186 124.384 28.4648 124.046 28.7048C123.709 28.949 123.355 29.1443 122.984 29.2908C122.614 29.4373 122.201 29.5553 121.745 29.6448C121.29 29.7343 120.848 29.7953 120.421 29.8279C119.994 29.8645 119.538 29.8828 119.054 29.8828C118.281 29.8828 117.581 29.7974 116.954 29.6265C116.331 29.4596 115.819 29.2297 115.416 28.9368C115.017 28.6438 114.71 28.3061 114.494 27.9236C114.279 27.5452 114.171 27.1403 114.171 26.709C114.171 25.826 114.677 25.1363 115.691 24.6399C115.296 24.4405 114.985 24.1679 114.757 23.822C114.529 23.4721 114.415 23.0509 114.415 22.5586C114.415 22.0093 114.574 21.5108 114.891 21.0632C115.208 20.6156 115.636 20.2901 116.173 20.0867C115.697 19.7489 115.324 19.338 115.056 18.8538C114.791 18.3695 114.659 17.8141 114.659 17.1875C114.659 16.6667 114.751 16.1987 114.934 15.7837C115.121 15.3687 115.371 15.0248 115.685 14.7522C116.002 14.4755 116.38 14.2476 116.82 14.0686C117.263 13.8855 117.729 13.7553 118.217 13.678C118.706 13.6007 119.229 13.562 119.786 13.562C121.072 13.562 122.168 13.7736 123.076 14.1968C123.283 13.9567 123.444 13.7309 123.558 13.5193C123.049 13.4867 122.618 13.2833 122.264 12.9089C121.914 12.5346 121.739 12.089 121.739 11.5723ZM119.908 15.4785C119.334 15.4785 118.885 15.6433 118.559 15.9729C118.238 16.3025 118.077 16.7786 118.077 17.4011C118.077 18.0278 118.24 18.516 118.565 18.866C118.891 19.2118 119.338 19.3848 119.908 19.3848C120.474 19.3848 120.919 19.2098 121.245 18.8599C121.574 18.5059 121.739 18.0196 121.739 17.4011C121.739 16.7867 121.576 16.3127 121.251 15.979C120.925 15.6453 120.478 15.4785 119.908 15.4785ZM118.047 25C117.579 25.3337 117.345 25.7406 117.345 26.2207C117.345 26.7049 117.495 27.0284 117.796 27.1912C118.097 27.358 118.679 27.4414 119.542 27.4414C121.495 27.4414 122.472 26.9531 122.472 25.9766C122.472 25.7324 122.37 25.5086 122.166 25.3052C121.963 25.1017 121.739 25 121.495 25H118.047ZM135.153 13.5254C135.723 13.5254 136.221 13.6027 136.649 13.7573C137.076 13.9119 137.426 14.1256 137.698 14.3982C137.971 14.6667 138.191 15.0106 138.358 15.4297C138.528 15.8447 138.646 16.2923 138.712 16.7725C138.781 17.2485 138.815 17.7938 138.815 18.4082V23.0469H140.036V25H134.177V23.0469H135.397V18.1641C135.397 17.5212 135.338 17.0207 135.22 16.6626C135.106 16.3045 134.94 16.0583 134.72 15.9241C134.504 15.7898 134.209 15.7227 133.835 15.7227C133.493 15.7227 133.143 15.8671 132.785 16.156C132.427 16.4449 132.087 16.8477 131.766 17.3645L131.735 23.0469H132.956V25H127.097V23.0469H128.317V15.7227H127.097V13.7695H130.887L131.741 15.4236C131.892 15.151 132.065 14.9068 132.26 14.6912C132.459 14.4714 132.695 14.2721 132.968 14.093C133.245 13.9099 133.568 13.7695 133.939 13.6719C134.309 13.5742 134.714 13.5254 135.153 13.5254ZM141.365 20.1172V18.1641H147.957V20.1172H141.365ZM149.286 13.7695H153.924V20.6055C153.924 21.2484 153.981 21.7489 154.095 22.1069C154.213 22.465 154.38 22.7112 154.596 22.8455C154.816 22.9797 155.113 23.0469 155.487 23.0469C155.829 23.0469 156.179 22.9024 156.537 22.6135C156.899 22.3246 157.241 21.9218 157.562 21.405L157.587 15.7227H156.366V13.7695H161.005V23.0469H162.225V25H158.435L157.58 23.3398C156.893 24.6094 155.755 25.2441 154.169 25.2441C153.599 25.2441 153.1 25.1668 152.673 25.0122C152.246 24.8576 151.896 24.646 151.623 24.3774C151.351 24.1048 151.129 23.761 150.958 23.3459C150.791 22.9268 150.673 22.4792 150.604 22.0032C150.539 21.523 150.506 20.9757 150.506 20.3613V15.7227H149.286V13.7695ZM171.751 13.4888C172.703 13.4888 173.511 13.7329 174.174 14.2212C174.838 14.7095 175.33 15.391 175.651 16.2659C175.977 17.1407 176.14 18.1824 176.14 19.3909C176.14 20.2738 176.024 21.0815 175.792 21.814C175.564 22.5464 175.242 23.1649 174.827 23.6694C174.416 24.1699 173.918 24.5585 173.332 24.8352C172.75 25.1078 172.111 25.2441 171.416 25.2441C171.066 25.2441 170.736 25.2116 170.427 25.1465C170.118 25.0854 169.853 25.0081 169.633 24.9146C169.418 24.821 169.212 24.705 169.017 24.5667C168.822 24.4283 168.663 24.2981 168.541 24.176C168.423 24.054 168.307 23.9176 168.193 23.7671V26.9531H169.414V28.9062H163.554V26.9531H164.775V15.7227H163.554V13.7695H167.18L167.918 15.1917C168.077 14.9679 168.258 14.7644 168.461 14.5813C169.267 13.8529 170.364 13.4888 171.751 13.4888ZM168.193 21.698C168.657 22.5525 169.287 22.9797 170.085 22.9797C170.891 22.9797 171.489 22.6644 171.879 22.0337C172.274 21.403 172.471 20.5078 172.471 19.3481C172.471 18.8029 172.406 18.3004 172.276 17.8406C172.15 17.3767 171.979 16.9922 171.763 16.687C171.552 16.3818 171.308 16.1458 171.031 15.979C170.754 15.8081 170.465 15.7227 170.164 15.7227C169.757 15.7227 169.395 15.8366 169.078 16.0645C168.765 16.2882 168.47 16.6219 168.193 17.0654V21.698Z" fill="#492777"/>
</svg>
