<svg width="91" height="104" viewBox="0 0 91 104" fill="none" xmlns="http://www.w3.org/2000/svg">
<path d="M53.9874 40.9376L54.4049 40.2474L53.9452 39.5846C50.4983 34.6149 50.492 26.2861 54.8809 18.6842C57.6407 13.9041 61.5519 10.4486 65.5927 8.69485C69.6338 6.94102 73.7186 6.91392 76.9937 8.80481C80.2689 10.6957 82.2878 14.2468 82.7895 18.6234C83.2911 22.9997 82.2542 28.1146 79.4943 32.8948C75.1428 40.4319 68.009 44.5872 62.012 44.1668L61.2538 44.1136L60.8604 44.764L30.7518 94.5413C30.2569 95.3595 29.1984 95.6316 28.3702 95.1535L24.603 92.9785C23.7506 92.4864 23.4688 91.39 23.9782 90.5478L53.9874 40.9376Z" fill="#ECDFEC" stroke="#492777" stroke-width="2.48828"/>
<circle cx="60.8657" cy="21.0051" r="1.60224" transform="rotate(30 60.8657 21.0051)" fill="#452377"/>
<circle cx="74.05" cy="28.6171" r="1.60224" transform="rotate(30 74.05 28.6171)" fill="#452377"/>
<circle cx="74.3737" cy="33.0087" r="1.16527" transform="rotate(30 74.3737 33.0087)" fill="#DCB2D3"/>
<circle cx="56.9005" cy="22.9206" r="1.16527" transform="rotate(30 56.9005 22.9206)" fill="#DCB2D3"/>
<path d="M64.3262 30.2352C66.5904 31.5425 69.4693 30.7949 70.7564 28.5656L62.5571 23.8317C61.2699 26.061 62.062 28.928 64.3262 30.2352Z" fill="#532A7F"/>
<ellipse cx="65.154" cy="28.9471" rx="1.60224" ry="0.94678" transform="rotate(30 65.154 28.9471)" fill="#C764A3"/>
<path d="M31.5304 15.6381L38.3753 27.4938C40.2823 30.7969 39.1506 35.0206 35.8475 36.9276C34.8024 37.531 34.4586 38.8763 35.0861 39.9071L65.929 90.5734C66.3811 91.3161 66.1335 92.2853 65.3805 92.72L61.9956 94.6743C61.2669 95.095 60.3357 94.8571 59.8982 94.1384L28.9965 43.3756C28.3723 42.3501 27.0435 42.0106 26.0039 42.6108C22.4416 44.6675 17.8866 43.447 15.8299 39.8847L9.25591 28.4983L2.47392 16.7515C2.04624 16.0107 2.30005 15.0635 3.04082 14.6358L5.45713 13.2408C6.1979 12.8131 7.14513 13.0669 7.57281 13.8077L10.6414 19.1225L16.5367 29.3335C17.0929 30.297 18.3249 30.6271 19.2883 30.0708C20.2517 29.5146 20.5818 28.2827 20.0256 27.3192L11.0617 11.7934C10.634 11.0526 10.8878 10.1054 11.6286 9.67767L14.0449 8.28261C14.7857 7.85493 15.7329 8.10873 16.1606 8.84951L19.2291 14.1644L25.1245 24.3754C25.6807 25.3388 26.9126 25.6689 27.8761 25.1127C28.8395 24.5564 29.1696 23.3245 28.6134 22.3611L19.6495 6.8352C19.2218 6.09442 19.4756 5.1472 20.2164 4.71951L22.6327 3.32445C23.3735 2.89677 24.3207 3.15058 24.7484 3.89135L31.5304 15.6381Z" fill="#ECDFEC" stroke="#492777" stroke-width="2.48828"/>
<circle cx="18.4828" cy="34.2834" r="1.60224" transform="rotate(-30 18.4828 34.2834)" fill="#452377"/>
<circle cx="31.6671" cy="26.6714" r="1.60224" transform="rotate(-30 31.6671 26.6714)" fill="#452377"/>
<circle cx="35.6323" cy="28.5869" r="1.16527" transform="rotate(-30 35.6323 28.5869)" fill="#DCB2D3"/>
<circle cx="18.159" cy="38.6751" r="1.16527" transform="rotate(-30 18.159 38.6751)" fill="#DCB2D3"/>
<path d="M28.2066 35.9016C30.4708 34.5944 31.2629 31.7274 29.9758 29.498L21.7764 34.2319C23.0635 36.4613 25.9425 37.2088 28.2066 35.9016Z" fill="#532A7F"/>
<ellipse cx="27.5048" cy="34.5407" rx="1.60224" ry="0.94678" transform="rotate(-30 27.5048 34.5407)" fill="#C764A3"/>
<path d="M4.08533 69.1793V52.7707C4.08533 51.3836 5.20977 50.2592 6.59685 50.2592H8.60606C9.99314 50.2592 11.1176 51.3836 11.1176 52.7707V56.7054C11.1176 57.3989 11.6798 57.9611 12.3733 57.9611H16.2243C16.9179 57.9611 17.4801 57.3989 17.4801 56.7054V52.7707C17.4801 51.3836 18.6045 50.2592 19.9916 50.2592H22.0008C23.3879 50.2592 24.5124 51.3836 24.5124 52.7707V69.1793C24.5124 70.5663 23.3879 71.6908 22.0008 71.6908H19.9916C18.6045 71.6908 17.4801 70.5663 17.4801 69.1793V64.5748C17.4801 63.8813 16.9179 63.3191 16.2243 63.3191H12.3733C11.6798 63.3191 11.1176 63.8813 11.1176 64.5748V69.1793C11.1176 70.5663 9.99314 71.6908 8.60606 71.6908H6.59685C5.20977 71.6908 4.08533 70.5663 4.08533 69.1793Z" fill="#DAC8E3" stroke="#492777" stroke-width="2.26967"/>
<path d="M64.2316 69.1793V52.7707C64.2316 51.3836 65.3561 50.2592 66.7431 50.2592H68.7524C70.1394 50.2592 71.2639 51.3836 71.2639 52.7707V56.7054C71.2639 57.3989 71.8261 57.9611 72.5196 57.9611H76.3706C77.0642 57.9611 77.6264 57.3989 77.6264 56.7054V52.7707C77.6264 51.3836 78.7508 50.2592 80.1379 50.2592H82.1471C83.5342 50.2592 84.6587 51.3836 84.6587 52.7707V69.1793C84.6587 70.5663 83.5342 71.6908 82.1471 71.6908H80.1379C78.7508 71.6908 77.6264 70.5663 77.6264 69.1793V64.5748C77.6264 63.8813 77.0642 63.3191 76.3706 63.3191H72.5196C71.8261 63.3191 71.2639 63.8813 71.2639 64.5748V69.1793C71.2639 70.5663 70.1394 71.6908 68.7524 71.6908H66.7431C65.3561 71.6908 64.2316 70.5663 64.2316 69.1793Z" fill="#DAC8E3" stroke="#492777" stroke-width="2.26967"/>
</svg>
